<?xml version="1.0" standalone="no"?><!DOCTYPE svg PUBLIC "-//W3C//DTD SVG 1.1//EN" "http://www.w3.org/Graphics/SVG/1.1/DTD/svg11.dtd"><svg t="1548439474476" class="icon" style="" viewBox="0 0 1024 1024" version="1.1" xmlns="http://www.w3.org/2000/svg" p-id="3809" xmlns:xlink="http://www.w3.org/1999/xlink" width="128" height="128"><defs><style type="text/css"></style></defs><path d="M-664.554667 249.408" p-id="3810"></path><path d="M-664.554667 249.408" p-id="3811"></path><path d="M512.021333 946.794667c-50.474667 0-90.453333-40.938667-90.453333-90.474667l178.752 0c0 53.482667-39.125333 90.474667-88.341333 90.474667L512.021333 946.794667z" p-id="3812"></path><path d="M905.770667 426.666667c-11.690667 0-21.205333-8.917333-21.333333-20.608-1.642667-164.394667-116.501333-252.224-117.674667-253.077333-9.386667-7.061333-11.328-20.288-4.309333-29.717333 7.082667-9.386667 20.352-11.306667 29.802667-4.309333 5.418667 4.010667 132.970667 100.416 134.826667 286.677333C927.232 417.365333 917.781333 426.666667 905.984 426.666667 905.92 426.666667 905.834667 426.666667 905.770667 426.666667z" p-id="3813"></path><path d="M118.229333 426.666667c-0.064 0-0.149333 0-0.213333 0-11.797333 0-21.248-9.258667-21.12-21.034667 1.877333-186.24 129.408-282.858667 134.826667-286.890667 9.472-7.018667 22.826667-4.906667 29.845333 4.522667 7.018667 9.450667 5.056 22.848-4.352 29.888l0 0c-1.173333 0.853333-116.010667 88.469333-117.674667 252.864C139.434667 417.728 129.898667 426.666667 118.229333 426.666667z" p-id="3814"></path><path d="M511.808 119.872c12.117333 0 21.952 9.898667 21.952 22.08l0 11.2c0 20.736 14.890667 38.464 35.306667 42.026667 104.362667 18.261333 180.117333 121.834667 180.117333 246.272l0 231.018667c0 12.074667 5.12 23.594667 14.08 31.68 29.632 26.730667 59.605333 58.304 70.506667 73.856-1.877333 0.661333-4.352 1.194667-7.253333 1.194667L511.808 779.2 195.242667 779.2c-2.538667 0-4.736-0.426667-6.421333-0.981333 10.944-15.488 41.301333-47.125333 71.317333-73.92 9.066667-8.085333 14.272-19.690667 14.272-31.829333L274.410667 441.450667c0-127.530667 73.941333-228.928 179.797333-246.613333 20.565333-3.434667 35.648-21.226667 35.648-42.090667L489.856 141.952C489.856 129.792 499.712 119.872 511.808 119.872M511.808 77.205333c-35.690667 0-64.64 28.992-64.64 64.746667L447.168 152.746667c-129.258667 21.589333-215.424 144.853333-215.424 288.704l0 231.018667c0 0-80.064 71.402667-87.061333 98.688-6.464 31.381333 21.845333 50.709333 50.56 50.709333 2.602667 0 194.389333 0 316.565333 0 129.258667 0 312.128 0 314.730667 0 28.736 0 57.92-19.328 51.477333-50.709333-7.018667-27.285333-86.144-98.688-86.144-98.688L791.872 441.450667c0-143.146667-87.189333-265.856-215.424-288.298667L576.448 141.952C576.448 106.197333 547.498667 77.205333 511.808 77.205333L511.808 77.205333z" p-id="3815"></path></svg>